<svg id="Museum" xmlns="http://www.w3.org/2000/svg" viewBox="0 0 276.47 235"><defs><style>.cls-1{fill:#505050;}.cls-2{fill:#c4c4c4;}.cls-3{fill:#5fb2d6;}.cls-4{fill:#167189;}.cls-5{fill:#fff;stroke:#fff;}.cls-5,.cls-6,.cls-7,.cls-8,.cls-9{stroke-miterlimit:10;}.cls-6{fill:#e7ff00;stroke:#e7ff00;}.cls-7{fill:#3b3f93;stroke:#3b3f93;}.cls-8{fill:#db3333;stroke:#db3333;}.cls-9{fill:#15961e;stroke:#15961e;}</style></defs><title>code-bubble</title><path class="cls-1" d="M10,0H266.47a10,10,0,0,1,10,10V174.18a0,0,0,0,1,0,0H0a0,0,0,0,1,0,0V10A10,10,0,0,1,10,0Z"/><path class="cls-2" d="M0,174.18H276.47a0,0,0,0,1,0,0v14.88a10,10,0,0,1-10,10H10a10,10,0,0,1-10-10V174.18a0,0,0,0,1,0,0Z"/><rect class="cls-3" x="13.82" y="13.82" width="248.82" height="146.53"/><rect class="cls-2" x="89.85" y="228.09" width="95.38" height="6.91"/><rect class="cls-2" x="125.79" y="199.06" width="23.5" height="31.79"/><rect class="cls-1" x="35.94" y="30.39" width="204.59" height="121.59"/><path class="cls-4" d="M38.44,20.74H238a2.5,2.5,0,0,1,2.5,2.5v7.15a0,0,0,0,1,0,0H35.94a0,0,0,0,1,0,0V23.24A2.5,2.5,0,0,1,38.44,20.74Z"/><line class="cls-5" x1="55.29" y1="38.71" x2="55.29" y2="144.46"/><rect class="cls-6" x="62.9" y="40.78" width="27.65" height="4.15"/><rect class="cls-5" x="208.04" y="40.78" width="20.74" height="4.15"/><rect class="cls-5" x="132.01" y="50.11" width="20.74" height="4.15"/><rect class="cls-5" x="181.78" y="77.76" width="20.74" height="4.15"/><rect class="cls-5" x="94.69" y="40.78" width="42.85" height="4.15"/><rect class="cls-5" x="94.69" y="94.69" width="42.85" height="4.15"/><rect class="cls-5" x="148.6" y="59.79" width="29.03" height="4.15"/><rect class="cls-7" x="161.04" y="86.4" width="29.03" height="4.15"/><rect class="cls-8" x="82.25" y="77.76" width="29.03" height="4.15"/><rect class="cls-9" x="82.25" y="50.11" width="45.62" height="4.15"/><rect class="cls-5" x="132.01" y="140.31" width="20.74" height="4.15"/><rect class="cls-7" x="82.25" y="140.31" width="45.62" height="4.15"/><rect class="cls-5" x="141.69" y="40.78" width="62.21" height="4.15"/><rect class="cls-6" x="62.9" y="115.43" width="27.65" height="4.15"/><rect class="cls-5" x="208.04" y="115.43" width="20.74" height="4.15"/><rect class="cls-5" x="94.69" y="115.43" width="42.85" height="4.15"/><rect class="cls-5" x="141.69" y="115.43" width="62.21" height="4.15"/><rect class="cls-5" x="94.69" y="86.4" width="62.21" height="4.15"/><rect class="cls-5" x="148.6" y="132.01" width="29.03" height="4.15"/><rect class="cls-5" x="82.25" y="132.01" width="62.21" height="4.15"/><rect class="cls-5" x="82.25" y="59.79" width="62.21" height="4.15"/><rect class="cls-5" x="141.69" y="94.69" width="62.21" height="4.15"/><rect class="cls-5" x="115.43" y="77.76" width="62.21" height="4.15"/><rect class="cls-8" x="181.78" y="123.72" width="20.74" height="4.15"/><rect class="cls-5" x="82.25" y="123.72" width="29.03" height="4.15"/><rect class="cls-5" x="115.43" y="123.72" width="62.21" height="4.15"/></svg>