<svg id="Museum" xmlns="http://www.w3.org/2000/svg" viewBox="0 0 197.5 283"><defs><style>.cls-1{fill:#2b74a5;}.cls-2{fill:#338cd1;}</style></defs><title>museum</title><rect class="cls-1" y="101.09" width="197.5" height="14.73" rx="1.75" ry="1.75"/><path class="cls-1" d="M3.46,119.28H194a0,0,0,0,1,0,0v4a3.75,3.75,0,0,1-3.75,3.75H7.21a3.75,3.75,0,0,1-3.75-3.75v-4a0,0,0,0,1,0,0Z"/><rect class="cls-1" y="268.27" width="197.5" height="14.73"/><rect class="cls-1" x="3.46" y="257.01" width="190.57" height="7.8"/><rect class="cls-1" x="4.55" y="130.54" width="45.48" height="6.93"/><rect class="cls-1" x="52.19" y="130.54" width="45.48" height="6.93"/><rect class="cls-1" x="100.7" y="130.54" width="45.48" height="6.93"/><rect class="cls-1" x="148.34" y="130.54" width="45.48" height="6.93"/><rect class="cls-1" x="4.55" y="246.62" width="45.48" height="6.93"/><rect class="cls-1" x="52.19" y="246.62" width="45.48" height="6.93"/><rect class="cls-1" x="100.7" y="246.62" width="45.48" height="6.93"/><rect class="cls-1" x="148.34" y="246.62" width="45.48" height="6.93"/><rect class="cls-2" x="12.99" y="139.2" width="28.59" height="105.68"/><rect class="cls-2" x="60.64" y="139.2" width="28.59" height="105.68"/><rect class="cls-2" x="109.15" y="139.2" width="28.59" height="105.68"/><rect class="cls-2" x="156.79" y="139.2" width="28.59" height="105.68"/><polyline class="cls-1" points="0.09 98.06 98.14 0 196.2 98.06"/></svg>