<svg id="Layer_1" data-name="Layer 1" xmlns="http://www.w3.org/2000/svg" viewBox="0 0 411.27 271.25"><defs><style>.cls-1,.cls-2,.cls-5{fill:#338cd1;}.cls-1,.cls-3{stroke:#338cd1;}.cls-1,.cls-3,.cls-4{stroke-miterlimit:10;}.cls-3{fill:none;}.cls-4{fill:#2b74a5;stroke:#2b74a5;}.cls-5{opacity:0.28;}</style></defs><title>pins</title><path class="cls-1" d="M247.5,182.5" transform="translate(-28.87 -13.75)"/><path class="cls-1" d="M250,14.25a75.63,75.63,0,1,0,75.63,75.63A75.63,75.63,0,0,0,250,14.25Zm.64,97.87a22.88,22.88,0,1,1,22.87-22.88A22.88,22.88,0,0,1,250.64,112.12Z" transform="translate(-28.87 -13.75)"/><polygon class="cls-2" points="289.13 109.81 221.44 242 153.76 109.81 289.13 109.81"/><line class="cls-3" x1="153.76" y1="109.81" x2="221.45" y2="242"/><line class="cls-3" x1="289.13" y1="109.81" x2="221.45" y2="242"/><line class="cls-3" x1="153.76" y1="109.81" x2="289.13" y2="109.81"/><path class="cls-4" d="M250.64,43.48a45.76,45.76,0,1,0,45.75,45.76A45.76,45.76,0,0,0,250.64,43.48Zm0,68.64a22.88,22.88,0,1,1,22.87-22.88A22.88,22.88,0,0,1,250.64,112.12Z" transform="translate(-28.87 -13.75)"/><path class="cls-1" d="M396.51,95a43.14,43.14,0,1,0,43.14,43.14A43.14,43.14,0,0,0,396.51,95Zm.36,55.83a13.06,13.06,0,1,1,13.05-13.06A13.06,13.06,0,0,1,396.87,150.83Z" transform="translate(-28.87 -13.75)"/><polygon class="cls-2" points="406.43 143.6 367.82 219 329.21 143.6 406.43 143.6"/><line class="cls-3" x1="329.21" y1="143.6" x2="367.82" y2="219"/><line class="cls-3" x1="406.42" y1="143.6" x2="367.82" y2="219"/><line class="cls-3" x1="329.21" y1="143.6" x2="406.42" y2="143.6"/><path class="cls-4" d="M396.87,111.67a26.11,26.11,0,1,0,26.1,26.1A26.11,26.11,0,0,0,396.87,111.67Zm0,39.16a13.06,13.06,0,1,1,13.05-13.06A13.06,13.06,0,0,1,396.87,150.83Z" transform="translate(-28.87 -13.75)"/><path class="cls-1" d="M81.59,66a52.22,52.22,0,1,0,52.22,52.22A52.22,52.22,0,0,0,81.59,66ZM82,133.58a15.8,15.8,0,1,1,15.8-15.8A15.81,15.81,0,0,1,82,133.58Z" transform="translate(-28.87 -13.75)"/><polygon class="cls-2" points="99.67 127.73 52.94 219 6.21 127.73 99.67 127.73"/><line class="cls-3" x1="6.2" y1="127.73" x2="52.94" y2="219"/><line class="cls-3" x1="99.67" y1="127.73" x2="52.94" y2="219"/><line class="cls-3" x1="6.2" y1="127.73" x2="99.67" y2="127.73"/><path class="cls-4" d="M82,86.19a31.6,31.6,0,1,0,31.6,31.59A31.59,31.59,0,0,0,82,86.19Zm0,47.39a15.8,15.8,0,1,1,15.8-15.8A15.81,15.81,0,0,1,82,133.58Z" transform="translate(-28.87 -13.75)"/><ellipse class="cls-5" cx="55.63" cy="243.75" rx="49.5" ry="5.5"/><ellipse class="cls-5" cx="221.13" cy="263.75" rx="76" ry="7.5"/><ellipse class="cls-5" cx="367.63" cy="243.75" rx="43.5" ry="5.5"/></svg>