<svg id="Layer_1" data-name="Layer 1" xmlns="http://www.w3.org/2000/svg" viewBox="0 0 512 387.8"><defs><style>.cls-1{fill:#505050;}</style></defs><title>youtube-grey</title><path class="cls-1" d="M334.81,233,221.7,171.1A20.77,20.77,0,0,0,191,189.33V312.05a20.72,20.72,0,0,0,30.61,18.29l113.12-60.82a20.78,20.78,0,0,0,.13-36.53ZM221,296.61V204.89l84.54,46.26Z" transform="translate(0 -62)"/><path class="cls-1" d="M508.23,153.53l0-.24c-.43-4.12-4.75-40.77-22.57-59.42C465,71.94,441.69,69.28,430.46,68c-.93-.11-1.78-.2-2.54-.3l-.9-.1C359.34,62.68,257.11,62,256.09,62h-.18c-1,0-103.25.68-171.54,5.6l-.91.1L81.07,68c-11.11,1.29-34.21,4-54.86,26.68C9.23,113.1,4.33,149,3.82,153l0,.53C3.61,155.24,0,196.07,0,237.05v38.31c0,41,3.61,81.81,3.77,83.53l0,.26c.44,4.05,4.75,40,22.49,58.69,19.36,21.2,43.85,24,57,25.51,2.09.24,3.88.44,5.1.65l1.19.17c39.08,3.72,161.61,5.55,166.81,5.62h.31c1,0,103.24-.67,170.93-5.59l.9-.1c.85-.11,1.81-.21,2.87-.32,11-1.17,34-3.61,54.38-26,17-18.45,21.89-54.32,22.39-58.35l.05-.52c.16-1.72,3.77-42.54,3.77-83.53V237.05C512,196.07,508.39,155.25,508.23,153.53ZM482,275.36c0,37.94-3.32,77-3.63,80.59-1.27,9.88-6.45,32.57-14.72,41.56-12.75,14-25.85,15.42-35.41,16.43-1.15.12-2.22.24-3.19.36-65.47,4.74-163.84,5.46-168.37,5.49-5.08-.08-125.82-1.92-163.71-5.44-1.94-.32-4-.56-6.25-.81-11.22-1.29-26.57-3-38.37-16l-.28-.3c-8.12-8.46-13.15-29.68-14.43-41.14C33.4,353.36,30,313.83,30,275.36V237.05c0-37.89,3.31-76.91,3.63-80.57,1.52-11.64,6.79-33,14.72-41.58,13.14-14.45,27-16.05,36.16-17.11L87,97.5C153.38,92.74,252.45,92,256,92s102.59.74,168.42,5.5l2.64.31c9.43,1.07,23.67,2.7,36.75,16.64l.12.13c8.12,8.47,13.15,30.06,14.43,41.75.23,2.56,3.64,42.17,3.64,80.72Z" transform="translate(0 -62)"/></svg>